<?xml version="1.0" standalone="no"?>
<!DOCTYPE svg PUBLIC "-//W3C//DTD SVG 20010904//EN"
 "http://www.w3.org/TR/2001/REC-SVG-20010904/DTD/svg10.dtd">
<svg version="1.0" xmlns="http://www.w3.org/2000/svg"
 width="720.000000pt" height="720.000000pt" viewBox="0 0 720.000000 720.000000"
 preserveAspectRatio="xMidYMid meet">
<metadata>
Created by potrace 1.14, written by Peter Selinger 2001-2017
</metadata>
<g transform="translate(0.000000,720.000000) scale(0.100000,-0.100000)"
fill="#000000" stroke="none">
<path d="M377 7185 c-176 -48 -316 -190 -363 -368 -12 -44 -14 -561 -14 -3212
0 -3518 -6 -3228 70 -3356 70 -118 198 -211 328 -238 38 -8 944 -11 3210 -11
3516 0 3214 -6 3343 70 119 71 210 196 238 328 15 74 16 6313 0 6398 -35 191
-203 358 -394 393 -95 18 -6354 13 -6418 -4z m4923 -699 c175 -16 347 -76 493
-173 324 -215 490 -528 481 -908 -13 -531 -410 -1107 -938 -1359 -93 -45 -230
-92 -295 -102 -20 -3 -39 -8 -42 -10 -13 -8 -127 -16 -224 -16 -463 0 -828
212 -1001 581 -28 60 -58 147 -70 201 -4 19 -8 37 -9 40 -1 6 -14 81 -22 125
-6 37 -6 303 0 330 3 11 8 40 12 65 12 71 13 79 30 139 37 130 119 305 198
421 109 159 260 307 425 417 126 84 341 183 451 208 124 28 170 36 246 41 50
4 91 7 92 8 4 3 108 -2 173 -8z m-3055 -31 c72 -12 192 -55 211 -76 16 -18 16
-22 2 -53 -9 -18 -45 -58 -80 -88 -63 -56 -253 -188 -270 -188 -5 0 1 13 13
29 30 41 22 71 -28 99 -63 34 -164 53 -308 57 -154 5 -225 -6 -308 -44 -113
-51 -157 -113 -165 -227 -15 -236 125 -397 433 -502 50 -17 173 -56 274 -87
322 -98 449 -178 520 -329 48 -101 58 -211 30 -331 -54 -229 -271 -442 -589
-577 -201 -86 -339 -119 -525 -124 -148 -4 -234 9 -370 55 -306 103 -274 249
103 470 54 32 62 30 37 -6 -14 -20 -20 -53 -16 -99 0 -11 16 -35 34 -54 74
-76 248 -127 472 -137 204 -9 329 19 431 95 59 45 90 89 109 156 57 202 -19
385 -213 510 -85 55 -144 80 -373 156 -336 112 -410 144 -511 217 -131 95
-195 264 -154 409 10 32 33 86 53 119 47 78 185 215 295 292 164 114 426 228
588 257 74 14 228 14 305 1z m3188 -3380 c136 -35 256 -129 310 -243 35 -75
47 -189 27 -273 -13 -57 -83 -214 -106 -237 -8 -7 -14 -17 -14 -21 0 -4 -8
-16 -17 -27 -10 -10 -31 -37 -47 -59 -17 -22 -83 -92 -147 -156 l-118 -116 92
-48 c51 -26 99 -53 108 -61 8 -8 19 -14 22 -14 15 0 95 -63 155 -123 74 -72
127 -157 147 -235 19 -71 19 -107 -1 -192 -30 -135 -126 -246 -353 -410 -245
-178 -421 -244 -651 -243 -238 1 -417 90 -534 268 -94 144 -118 343 -60 506
49 140 187 310 352 434 l52 39 -37 22 c-88 51 -113 69 -151 104 -115 108 -149
280 -90 442 78 211 316 452 561 567 197 93 345 116 500 76z m-2838 -39 c270
-59 445 -185 514 -372 57 -151 42 -348 -37 -499 -81 -154 -237 -300 -477 -447
-119 -72 -184 -102 -291 -133 -106 -31 -169 -39 -286 -39 -82 0 -88 -2 -88
-21 -7 -279 -10 -315 -34 -399 -13 -45 -76 -162 -94 -176 -4 -3 -16 -15 -26
-28 l-20 -22 248 0 c137 1 251 -1 254 -4 3 -3 0 -6 -6 -6 -6 0 -51 -34 -99
-76 -48 -42 -108 -90 -133 -107 l-45 -31 -263 -1 c-145 0 -265 2 -267 5 -2 3
19 30 46 60 72 77 93 122 106 230 4 30 8 460 8 954 l0 899 -189 0 -188 -1 28
25 c16 13 38 32 50 42 57 49 173 132 203 144 27 11 126 14 544 12 282 -2 526
-6 542 -9z"/>
<path d="M4817 6264 c-1 -1 -45 -4 -97 -8 -349 -22 -584 -200 -678 -511 -19
-63 -34 -149 -47 -260 -6 -50 -6 -309 0 -350 8 -61 16 -125 16 -130 0 -20 52
-185 78 -247 97 -232 276 -419 497 -519 66 -30 218 -77 269 -83 16 -3 57 -8
90 -12 117 -15 266 -11 379 10 182 33 346 141 452 296 63 92 123 238 144 351
6 30 12 65 15 79 9 43 19 192 19 275 -1 271 -79 513 -230 711 -148 195 -384
332 -649 378 -50 9 -252 25 -258 20z"/>
<path d="M4859 2856 c-65 -17 -110 -46 -141 -91 -39 -58 -53 -118 -53 -225 1
-86 4 -101 33 -161 37 -78 119 -167 209 -227 86 -58 345 -184 364 -177 15 6
105 135 132 190 32 64 59 173 62 248 5 131 -31 226 -117 308 -57 54 -162 113
-234 130 -71 16 -202 19 -255 5z"/>
<path d="M4682 1822 c-157 -157 -189 -488 -67 -697 52 -87 164 -183 269 -230
154 -68 396 -72 518 -9 36 18 85 70 105 109 9 16 18 67 21 116 13 228 -104
385 -409 548 -87 46 -393 181 -411 181 -4 0 -16 -8 -26 -18z"/>
<path d="M1955 2822 l-30 -3 2 -457 c2 -558 1 -522 11 -520 12 3 103 -12 167
-29 433 -110 677 -7 712 301 35 304 -57 502 -282 611 -66 31 -145 56 -224 70
-19 3 -37 8 -41 10 -4 2 -56 7 -116 11 -157 9 -166 9 -199 6z"/>
</g>
</svg>
